# xmcd
# Track frame offsets:
# 150
# 16873
# 37746
# 57077
# 70505
# 87487
# 100860
# 114527
# 125245
# 137090
#
# Disc length: 2048 seconds
# Revision: 0
# Processed by: cddbd v1.4PL0 Copyright (c) Steve Scherf et al.
# Submitted via: VisiTrax 2.9.5.181 - For more info visit www.synapsa.com
#
DISCID=7e07fe0a
DTITLE=Garth Brooks - Garth Brooks
DYEAR=1900
DGENRE=Country
TTITLE0=Not Counting You
TTITLE1=I've Got a Good Thing Going
TTITLE2=If Tomorrow Never Comes
TTITLE3=Everytime That It Rains
TTITLE4=Alabama Clay
TTITLE5=Much Too Young (To Feel This Damn Old)
TTITLE6=Cowboy Bill
TTITLE7=Nobody Gets Off in This Town
TTITLE8=I Know One
TTITLE9=The Dance
EXTD=
EXTT0=
EXTT1=
EXTT2=
EXTT3=
EXTT4=
EXTT5=
EXTT6=
EXTT7=
EXTT8=
EXTT9=
PLAYORDER=
